# xmcd
#
# Track frame offsets:
#	150
#	14139
#	27373
#	41618
#	56189
#	70224
#	82725
#	95834
#	110448
#	127910
#	140377
#	156036
#	170030
#	185698
#	202673
#	217069
#	232125
#	245449
#
# Disc length: 3459 seconds
#
# Revision: 1
# Processed by: cddbd v1.5.2PL0 Copyright (c) Steve Scherf et al.
# Submitted via: audiograbber 1.82.02
#
DISCID=050d8112
DTITLE=Various Artists  - Country Radio - December 2019
DYEAR=2019
DGENRE=Country
TTITLE0=Pink (Ft. Chris Stapleton) - Love Me Anyway
TTITLE1=Paul Rosewood - Second Chances
TTITLE2=Brett Kissel - Drink About Me
TTITLE3=Mags - Emotional Honesty
TTITLE4=Runaway June - Head Over Heels
TTITLE5=Dan and Shay and Justin Bieber - 10,000 Hours
TTITLE6=Cody Purvis - Drinkin' Terms
TTITLE7=Lainey Wilson - Dirty Looks
TTITLE8=Dylan Jakobsen - I Am
TTITLE9=Stephanie Quayle - Whatcha Drinkin' 'Bout
TTITLE10=Rayne Johnson - Front Seat
TTITLE11=Chris Lane - Big Big Plans
TTITLE12=Will Carter - You Feel Like Home
TTITLE13=Lanco - What I See
TTITLE14=John Allan Miller - Bad Day To Be A Beer (PO Clean Edit)
TTITLE15=Hootie and The Blowfish - Hold On
TTITLE16=Jess Moskaluke - Country Girls
TTITLE17=Keith Urban (Ft. Eric Church) - We Were (Rmx)
EXTD=
EXTT0=
EXTT1=
EXTT2=
EXTT3=
EXTT4=
EXTT5=
EXTT6=
EXTT7=
EXTT8=
EXTT9=
EXTT10=
EXTT11=
EXTT12=
EXTT13=
EXTT14=
EXTT15=
EXTT16=
EXTT17=
PLAYORDER=
